<?xml version="1.0" encoding="UTF-8" standalone="no"?><svg xmlns="http://www.w3.org/2000/svg" xmlns:xlink="http://www.w3.org/1999/xlink" contentStyleType="text/css" height="439px" preserveAspectRatio="none" style="width:393px;height:439px;background:#FFFFFF;" version="1.1" viewBox="0 0 393 439" width="393px" zoomAndPan="magnify"><defs/><g><ellipse cx="184" cy="20" fill="#222222" rx="10" ry="10" style="stroke:#222222;stroke-width:1.0;"/><rect fill="#F1F1F1" height="34.1328" rx="12.5" ry="12.5" style="stroke:#181818;stroke-width:0.5;" width="206" x="81" y="50"/><text fill="#000000" font-family="sans-serif" font-size="12" lengthAdjust="spacing" textLength="186" x="91" y="71.6016">Letzte nachrichtenposition laden</text><rect fill="#F1F1F1" height="34.1328" rx="12.5" ry="12.5" style="stroke:#181818;stroke-width:0.5;" width="171" x="98.5" y="104.1328"/><text fill="#000000" font-family="sans-serif" font-size="12" lengthAdjust="spacing" textLength="151" x="108.5" y="125.7344">Maximaler F端llstand laden</text><rect fill="#F1F1F1" height="34.1328" rx="12.5" ry="12.5" style="stroke:#181818;stroke-width:0.5;" width="107" x="130.5" y="202.2656"/><text fill="#000000" font-family="sans-serif" font-size="12" lengthAdjust="spacing" textLength="87" x="140.5" y="223.8672">Inkrementieren</text><rect fill="#F1F1F1" height="34.1328" rx="12.5" ry="12.5" style="stroke:#181818;stroke-width:0.5;" width="217" x="75.5" y="256.3984"/><text fill="#000000" font-family="sans-serif" font-size="12" lengthAdjust="spacing" textLength="197" x="85.5" y="278">Nachricht aus dem Speicher laden</text><rect fill="#F1F1F1" height="34.1328" rx="12.5" ry="12.5" style="stroke:#181818;stroke-width:0.5;" width="346" x="11" y="310.5313"/><text fill="#000000" font-family="sans-serif" font-size="12" lengthAdjust="spacing" textLength="326" x="21" y="332.1328">Nachricht in den Speicher der Message Queue speichern</text><polygon fill="#F1F1F1" points="52.5,158.2656,315.5,158.2656,327.5,170.2656,315.5,182.2656,52.5,182.2656,40.5,170.2656,52.5,158.2656" style="stroke:#181818;stroke-width:0.5;"/><text fill="#000000" font-family="sans-serif" font-size="11" lengthAdjust="spacing" textLength="263" x="52.5" y="174.4229">maximaler F端llstand &gt; letzte nachrichtenposition</text><polygon fill="#F1F1F1" points="184,364.6641,196,376.6641,184,388.6641,172,376.6641,184,364.6641" style="stroke:#181818;stroke-width:0.5;"/><ellipse cx="184" cy="418.6641" rx="10" ry="10" style="stroke:#222222;stroke-width:1.5;fill:none;"/><line style="stroke:#222222;stroke-width:2.5;fill:none;" x1="177.8128" x2="190.1872" y1="412.4769" y2="424.8512"/><line style="stroke:#222222;stroke-width:2.5;fill:none;" x1="190.1872" x2="177.8128" y1="412.4769" y2="424.8512"/><line style="stroke:#181818;stroke-width:1.0;fill:none;" x1="184" x2="184" y1="30" y2="50"/><polygon fill="#181818" points="180,40,184,50,188,40,184,44" style="stroke:#181818;stroke-width:1.0;"/><line style="stroke:#181818;stroke-width:1.0;" x1="184" x2="184" y1="84.1328" y2="104.1328"/><polygon fill="#181818" points="180,94.1328,184,104.1328,188,94.1328,184,98.1328" style="stroke:#181818;stroke-width:1.0;"/><line style="stroke:#181818;stroke-width:1.0;" x1="184" x2="184" y1="236.3984" y2="256.3984"/><polygon fill="#181818" points="180,246.3984,184,256.3984,188,246.3984,184,250.3984" style="stroke:#181818;stroke-width:1.0;"/><line style="stroke:#181818;stroke-width:1.0;" x1="184" x2="184" y1="290.5313" y2="310.5313"/><polygon fill="#181818" points="180,300.5313,184,310.5313,188,300.5313,184,304.5313" style="stroke:#181818;stroke-width:1.0;"/><line style="stroke:#181818;stroke-width:1.0;" x1="184" x2="184" y1="182.2656" y2="202.2656"/><polygon fill="#181818" points="180,192.2656,184,202.2656,188,192.2656,184,196.2656" style="stroke:#181818;stroke-width:1.0;"/><line style="stroke:#181818;stroke-width:1.0;" x1="327.5" x2="367" y1="170.2656" y2="170.2656"/><polygon fill="#181818" points="363,263.4648,367,273.4648,371,263.4648,367,267.4648" style="stroke:#181818;stroke-width:1.0;"/><line style="stroke:#181818;stroke-width:1.0;" x1="367" x2="367" y1="170.2656" y2="376.6641"/><line style="stroke:#181818;stroke-width:1.0;" x1="367" x2="196" y1="376.6641" y2="376.6641"/><polygon fill="#181818" points="206,372.6641,196,376.6641,206,380.6641,202,376.6641" style="stroke:#181818;stroke-width:1.0;"/><line style="stroke:#181818;stroke-width:1.0;" x1="184" x2="184" y1="344.6641" y2="364.6641"/><polygon fill="#181818" points="180,354.6641,184,364.6641,188,354.6641,184,358.6641" style="stroke:#181818;stroke-width:1.0;"/><line style="stroke:#181818;stroke-width:1.0;" x1="184" x2="184" y1="138.2656" y2="158.2656"/><polygon fill="#181818" points="180,148.2656,184,158.2656,188,148.2656,184,152.2656" style="stroke:#181818;stroke-width:1.0;"/><line style="stroke:#181818;stroke-width:1.0;" x1="184" x2="184" y1="388.6641" y2="408.6641"/><polygon fill="#181818" points="180,398.6641,184,408.6641,188,398.6641,184,402.6641" style="stroke:#181818;stroke-width:1.0;"/><!--MD5=[16517f876b729054a9a96bf978c1a3fa]
@startuml
start
:Letzte nachrichtenposition laden;
:Maximaler F端llstand laden;
if(maximaler F端llstand > letzte nachrichtenposition)
  :Inkrementieren;
  :Nachricht aus dem Speicher laden;
  :Nachricht in den Speicher der Message Queue speichern;
endif
end
@enduml

PlantUML version 1.2022.4(Sat Apr 09 15:29:17 CEST 2022)
(GPL source distribution)
Java Runtime: OpenJDK Runtime Environment
JVM: OpenJDK 64-Bit Server VM
Default Encoding: UTF-8
Language: de
Country: CH
--></g></svg>