<?xml version="1.0" encoding="UTF-8" standalone="no"?><svg xmlns="http://www.w3.org/2000/svg" xmlns:xlink="http://www.w3.org/1999/xlink" contentStyleType="text/css" height="852px" preserveAspectRatio="none" style="width:393px;height:852px;background:#FFFFFF;" version="1.1" viewBox="0 0 393 852" width="393px" zoomAndPan="magnify"><defs/><g><ellipse cx="184" cy="20" fill="#222222" rx="10" ry="10" style="stroke:#222222;stroke-width:1.0;"/><rect fill="#98FB98" height="34.1328" rx="12.5" ry="12.5" style="stroke:#181818;stroke-width:0.5;" width="206" x="81" y="50"/><text fill="#000000" font-family="sans-serif" font-size="12" lengthAdjust="spacing" textLength="186" x="91" y="71.6016">Letzte nachrichtenposition laden</text><rect fill="#98FB98" height="34.1328" rx="12.5" ry="12.5" style="stroke:#181818;stroke-width:0.5;" width="171" x="98.5" y="104.1328"/><text fill="#000000" font-family="sans-serif" font-size="12" lengthAdjust="spacing" textLength="151" x="108.5" y="125.7344">Maximaler Füllstand laden</text><rect fill="#98FB98" height="34.1328" rx="12.5" ry="12.5" style="stroke:#181818;stroke-width:0.5;" width="107" x="130.5" y="202.2656"/><text fill="#000000" font-family="sans-serif" font-size="12" lengthAdjust="spacing" textLength="87" x="140.5" y="223.8672">Inkrementieren</text><rect fill="#98FB98" height="34.1328" rx="12.5" ry="12.5" style="stroke:#181818;stroke-width:0.5;" width="217" x="75.5" y="256.3984"/><text fill="#000000" font-family="sans-serif" font-size="12" lengthAdjust="spacing" textLength="197" x="85.5" y="278">Nachricht aus dem Speicher laden</text><rect fill="#98FB98" height="34.1328" rx="12.5" ry="12.5" style="stroke:#181818;stroke-width:0.5;" width="346" x="11" y="310.5313"/><text fill="#000000" font-family="sans-serif" font-size="12" lengthAdjust="spacing" textLength="326" x="21" y="332.1328">Nachricht in den Speicher der Message Queue speichern</text><polygon fill="#F1F1F1" points="52.5,158.2656,315.5,158.2656,327.5,170.2656,315.5,182.2656,52.5,182.2656,40.5,170.2656,52.5,158.2656" style="stroke:#181818;stroke-width:0.5;"/><text fill="#000000" font-family="sans-serif" font-size="11" lengthAdjust="spacing" textLength="263" x="52.5" y="174.4229">maximaler Füllstand &gt; letzte nachrichtenposition</text><polygon fill="#F1F1F1" points="184,364.6641,196,376.6641,184,388.6641,172,376.6641,184,364.6641" style="stroke:#181818;stroke-width:0.5;"/><rect fill="#FF0000" height="34.1328" rx="12.5" ry="12.5" style="stroke:#181818;stroke-width:0.5;" width="105" x="131.5" y="408.6641"/><text fill="#000000" font-family="sans-serif" font-size="12" lengthAdjust="spacing" textLength="81" x="145.5" y="430.2656">context switch</text><rect fill="#00FFFF" height="34.1328" rx="12.5" ry="12.5" style="stroke:#181818;stroke-width:0.5;" width="206" x="81" y="462.7969"/><text fill="#000000" font-family="sans-serif" font-size="12" lengthAdjust="spacing" textLength="186" x="91" y="484.3984">Letzte nachrichtenposition laden</text><rect fill="#00FFFF" height="34.1328" rx="12.5" ry="12.5" style="stroke:#181818;stroke-width:0.5;" width="171" x="98.5" y="516.9297"/><text fill="#000000" font-family="sans-serif" font-size="12" lengthAdjust="spacing" textLength="151" x="108.5" y="538.5313">Maximaler Füllstand laden</text><rect fill="#00FFFF" height="34.1328" rx="12.5" ry="12.5" style="stroke:#181818;stroke-width:0.5;" width="107" x="130.5" y="615.0625"/><text fill="#000000" font-family="sans-serif" font-size="12" lengthAdjust="spacing" textLength="87" x="140.5" y="636.6641">Inkrementieren</text><rect fill="#00FFFF" height="34.1328" rx="12.5" ry="12.5" style="stroke:#181818;stroke-width:0.5;" width="217" x="75.5" y="669.1953"/><text fill="#000000" font-family="sans-serif" font-size="12" lengthAdjust="spacing" textLength="197" x="85.5" y="690.7969">Nachricht aus dem Speicher laden</text><rect fill="#00FFFF" height="34.1328" rx="12.5" ry="12.5" style="stroke:#181818;stroke-width:0.5;" width="346" x="11" y="723.3281"/><text fill="#000000" font-family="sans-serif" font-size="12" lengthAdjust="spacing" textLength="326" x="21" y="744.9297">Nachricht in den Speicher der Message Queue speichern</text><polygon fill="#F1F1F1" points="52.5,571.0625,315.5,571.0625,327.5,583.0625,315.5,595.0625,52.5,595.0625,40.5,583.0625,52.5,571.0625" style="stroke:#181818;stroke-width:0.5;"/><text fill="#000000" font-family="sans-serif" font-size="11" lengthAdjust="spacing" textLength="263" x="52.5" y="587.2197">maximaler Füllstand &gt; letzte nachrichtenposition</text><polygon fill="#F1F1F1" points="184,777.4609,196,789.4609,184,801.4609,172,789.4609,184,777.4609" style="stroke:#181818;stroke-width:0.5;"/><ellipse cx="184" cy="831.4609" rx="10" ry="10" style="stroke:#222222;stroke-width:1.5;fill:none;"/><line style="stroke:#222222;stroke-width:2.5;fill:none;" x1="177.8128" x2="190.1872" y1="825.2738" y2="837.6481"/><line style="stroke:#222222;stroke-width:2.5;fill:none;" x1="190.1872" x2="177.8128" y1="825.2738" y2="837.6481"/><line style="stroke:#181818;stroke-width:1.0;fill:none;" x1="184" x2="184" y1="30" y2="50"/><polygon fill="#181818" points="180,40,184,50,188,40,184,44" style="stroke:#181818;stroke-width:1.0;"/><line style="stroke:#181818;stroke-width:1.0;" x1="184" x2="184" y1="84.1328" y2="104.1328"/><polygon fill="#181818" points="180,94.1328,184,104.1328,188,94.1328,184,98.1328" style="stroke:#181818;stroke-width:1.0;"/><line style="stroke:#181818;stroke-width:1.0;" x1="184" x2="184" y1="236.3984" y2="256.3984"/><polygon fill="#181818" points="180,246.3984,184,256.3984,188,246.3984,184,250.3984" style="stroke:#181818;stroke-width:1.0;"/><line style="stroke:#181818;stroke-width:1.0;" x1="184" x2="184" y1="290.5313" y2="310.5313"/><polygon fill="#181818" points="180,300.5313,184,310.5313,188,300.5313,184,304.5313" style="stroke:#181818;stroke-width:1.0;"/><line style="stroke:#181818;stroke-width:1.0;" x1="184" x2="184" y1="182.2656" y2="202.2656"/><polygon fill="#181818" points="180,192.2656,184,202.2656,188,192.2656,184,196.2656" style="stroke:#181818;stroke-width:1.0;"/><line style="stroke:#181818;stroke-width:1.0;" x1="327.5" x2="367" y1="170.2656" y2="170.2656"/><polygon fill="#181818" points="363,263.4648,367,273.4648,371,263.4648,367,267.4648" style="stroke:#181818;stroke-width:1.0;"/><line style="stroke:#181818;stroke-width:1.0;" x1="367" x2="367" y1="170.2656" y2="376.6641"/><line style="stroke:#181818;stroke-width:1.0;" x1="367" x2="196" y1="376.6641" y2="376.6641"/><polygon fill="#181818" points="206,372.6641,196,376.6641,206,380.6641,202,376.6641" style="stroke:#181818;stroke-width:1.0;"/><line style="stroke:#181818;stroke-width:1.0;" x1="184" x2="184" y1="344.6641" y2="364.6641"/><polygon fill="#181818" points="180,354.6641,184,364.6641,188,354.6641,184,358.6641" style="stroke:#181818;stroke-width:1.0;"/><line style="stroke:#181818;stroke-width:1.0;" x1="184" x2="184" y1="138.2656" y2="158.2656"/><polygon fill="#181818" points="180,148.2656,184,158.2656,188,148.2656,184,152.2656" style="stroke:#181818;stroke-width:1.0;"/><line style="stroke:#181818;stroke-width:1.0;" x1="184" x2="184" y1="388.6641" y2="408.6641"/><polygon fill="#181818" points="180,398.6641,184,408.6641,188,398.6641,184,402.6641" style="stroke:#181818;stroke-width:1.0;"/><line style="stroke:#181818;stroke-width:1.0;" x1="184" x2="184" y1="442.7969" y2="462.7969"/><polygon fill="#181818" points="180,452.7969,184,462.7969,188,452.7969,184,456.7969" style="stroke:#181818;stroke-width:1.0;"/><line style="stroke:#181818;stroke-width:1.0;" x1="184" x2="184" y1="496.9297" y2="516.9297"/><polygon fill="#181818" points="180,506.9297,184,516.9297,188,506.9297,184,510.9297" style="stroke:#181818;stroke-width:1.0;"/><line style="stroke:#181818;stroke-width:1.0;" x1="184" x2="184" y1="649.1953" y2="669.1953"/><polygon fill="#181818" points="180,659.1953,184,669.1953,188,659.1953,184,663.1953" style="stroke:#181818;stroke-width:1.0;"/><line style="stroke:#181818;stroke-width:1.0;" x1="184" x2="184" y1="703.3281" y2="723.3281"/><polygon fill="#181818" points="180,713.3281,184,723.3281,188,713.3281,184,717.3281" style="stroke:#181818;stroke-width:1.0;"/><line style="stroke:#181818;stroke-width:1.0;" x1="184" x2="184" y1="595.0625" y2="615.0625"/><polygon fill="#181818" points="180,605.0625,184,615.0625,188,605.0625,184,609.0625" style="stroke:#181818;stroke-width:1.0;"/><line style="stroke:#181818;stroke-width:1.0;" x1="327.5" x2="367" y1="583.0625" y2="583.0625"/><polygon fill="#181818" points="363,676.2617,367,686.2617,371,676.2617,367,680.2617" style="stroke:#181818;stroke-width:1.0;"/><line style="stroke:#181818;stroke-width:1.0;" x1="367" x2="367" y1="583.0625" y2="789.4609"/><line style="stroke:#181818;stroke-width:1.0;" x1="367" x2="196" y1="789.4609" y2="789.4609"/><polygon fill="#181818" points="206,785.4609,196,789.4609,206,793.4609,202,789.4609" style="stroke:#181818;stroke-width:1.0;"/><line style="stroke:#181818;stroke-width:1.0;" x1="184" x2="184" y1="757.4609" y2="777.4609"/><polygon fill="#181818" points="180,767.4609,184,777.4609,188,767.4609,184,771.4609" style="stroke:#181818;stroke-width:1.0;"/><line style="stroke:#181818;stroke-width:1.0;" x1="184" x2="184" y1="551.0625" y2="571.0625"/><polygon fill="#181818" points="180,561.0625,184,571.0625,188,561.0625,184,565.0625" style="stroke:#181818;stroke-width:1.0;"/><line style="stroke:#181818;stroke-width:1.0;" x1="184" x2="184" y1="801.4609" y2="821.4609"/><polygon fill="#181818" points="180,811.4609,184,821.4609,188,811.4609,184,815.4609" style="stroke:#181818;stroke-width:1.0;"/><!--MD5=[edd9c68bab5c5a11388f9f5ef9a8d1ad]
@startuml
start
#palegreen:Letzte nachrichtenposition laden;
#palegreen:Maximaler Füllstand laden;

if(maximaler Füllstand > letzte nachrichtenposition)
  #palegreen:Inkrementieren;
  #palegreen:Nachricht aus dem Speicher laden;
  #palegreen:Nachricht in den Speicher der Message Queue speichern;
endif


#red: context switch;

#aqua:Letzte nachrichtenposition laden;
#aqua:Maximaler Füllstand laden;
if(maximaler Füllstand > letzte nachrichtenposition)
  #aqua:Inkrementieren;
  #aqua:Nachricht aus dem Speicher laden;
  #aqua:Nachricht in den Speicher der Message Queue speichern;
endif


end
@enduml

PlantUML version 1.2022.5(Sat Apr 30 12:55:52 CEST 2022)
(GPL source distribution)
Java Runtime: OpenJDK Runtime Environment
JVM: OpenJDK 64-Bit Server VM
Default Encoding: UTF-8
Language: de
Country: CH
--></g></svg>