<?xml version="1.0" encoding="UTF-8" standalone="no"?><svg xmlns="http://www.w3.org/2000/svg" xmlns:xlink="http://www.w3.org/1999/xlink" contentStyleType="text/css" height="539px" preserveAspectRatio="none" style="width:762px;height:539px;background:#FFFFFF;" version="1.1" viewBox="0 0 762 539" width="762px" zoomAndPan="magnify"><defs/><g><rect height="26.4883" style="stroke:#00000000;stroke-width:1.0;fill:none;" width="263" x="245.75" y="10"/><text fill="#000000" font-family="sans-serif" font-size="14" font-weight="bold" lengthAdjust="spacing" textLength="253" x="250.75" y="28.5352">Linienfolger mit Kollisionkontrolle</text><rect fill="#1E90FF" height="39.9658" style="stroke:#181818;stroke-width:1.0;" width="10" x="229" y="151.0859"/><rect fill="#1E90FF" height="39.9658" style="stroke:#181818;stroke-width:1.0;" width="10" x="229" y="400.2939"/><rect fill="#1E90FF" height="9" style="stroke:#181818;stroke-width:1.0;" width="10" x="229" y="469.5703"/><rect fill="#E9967A" height="29.3105" style="stroke:#181818;stroke-width:1.0;" width="10" x="355.5" y="121.7754"/><rect fill="#E9967A" height="29.3105" style="stroke:#181818;stroke-width:1.0;" width="10" x="355.5" y="281.0176"/><rect fill="#E9967A" height="29.3105" style="stroke:#181818;stroke-width:1.0;" width="10" x="355.5" y="440.2598"/><rect fill="#00FFFF" height="89.9658" style="stroke:#181818;stroke-width:1.0;" width="10" x="466.5" y="191.0518"/><rect fill="#00FFFF" height="89.9658" style="stroke:#181818;stroke-width:1.0;" width="10" x="466.5" y="310.3281"/><line style="stroke:#181818;stroke-width:0.5;stroke-dasharray:5.0,5.0;" x1="234" x2="234" y1="90.4648" y2="487.5703"/><line style="stroke:#181818;stroke-width:0.5;stroke-dasharray:5.0,5.0;" x1="360" x2="360" y1="90.4648" y2="487.5703"/><line style="stroke:#181818;stroke-width:0.5;stroke-dasharray:5.0,5.0;" x1="471" x2="471" y1="90.4648" y2="487.5703"/><rect fill="#E2E2F0" height="46.9766" rx="2.5" ry="2.5" style="stroke:#181818;stroke-width:0.5;" width="122" x="173" y="42.4883"/><text fill="#000000" font-family="sans-serif" font-size="14" font-style="italic" lengthAdjust="spacing" textLength="54" x="207" y="63.0234">«Prio 2»</text><text fill="#000000" font-family="sans-serif" font-size="14" lengthAdjust="spacing" textLength="108" x="180" y="79.5117">Motorcontroller</text><rect fill="#E2E2F0" height="46.9766" rx="2.5" ry="2.5" style="stroke:#181818;stroke-width:0.5;" width="122" x="173" y="486.5703"/><text fill="#000000" font-family="sans-serif" font-size="14" font-style="italic" lengthAdjust="spacing" textLength="54" x="207" y="507.1055">«Prio 2»</text><text fill="#000000" font-family="sans-serif" font-size="14" lengthAdjust="spacing" textLength="108" x="180" y="523.5938">Motorcontroller</text><rect fill="#E2E2F0" height="46.9766" rx="2.5" ry="2.5" style="stroke:#181818;stroke-width:0.5;" width="111" x="305" y="42.4883"/><text fill="#000000" font-family="sans-serif" font-size="14" font-style="italic" lengthAdjust="spacing" textLength="54" x="333.5" y="63.0234">«Prio 3»</text><text fill="#000000" font-family="sans-serif" font-size="14" lengthAdjust="spacing" textLength="97" x="312" y="79.5117">Distanzsensor</text><rect fill="#E2E2F0" height="46.9766" rx="2.5" ry="2.5" style="stroke:#181818;stroke-width:0.5;" width="111" x="305" y="486.5703"/><text fill="#000000" font-family="sans-serif" font-size="14" font-style="italic" lengthAdjust="spacing" textLength="54" x="333.5" y="507.1055">«Prio 3»</text><text fill="#000000" font-family="sans-serif" font-size="14" lengthAdjust="spacing" textLength="97" x="312" y="523.5938">Distanzsensor</text><rect fill="#E2E2F0" height="46.9766" rx="2.5" ry="2.5" style="stroke:#181818;stroke-width:0.5;" width="91" x="426" y="42.4883"/><text fill="#000000" font-family="sans-serif" font-size="14" font-style="italic" lengthAdjust="spacing" textLength="54" x="444.5" y="63.0234">«Prio 1»</text><text fill="#000000" font-family="sans-serif" font-size="14" lengthAdjust="spacing" textLength="77" x="433" y="79.5117">Farbsensor</text><rect fill="#E2E2F0" height="46.9766" rx="2.5" ry="2.5" style="stroke:#181818;stroke-width:0.5;" width="91" x="426" y="486.5703"/><text fill="#000000" font-family="sans-serif" font-size="14" font-style="italic" lengthAdjust="spacing" textLength="54" x="444.5" y="507.1055">«Prio 1»</text><text fill="#000000" font-family="sans-serif" font-size="14" lengthAdjust="spacing" textLength="77" x="433" y="523.5938">Farbsensor</text><rect fill="#1E90FF" height="39.9658" style="stroke:#181818;stroke-width:1.0;" width="10" x="229" y="151.0859"/><rect fill="#1E90FF" height="39.9658" style="stroke:#181818;stroke-width:1.0;" width="10" x="229" y="400.2939"/><rect fill="#1E90FF" height="9" style="stroke:#181818;stroke-width:1.0;" width="10" x="229" y="469.5703"/><rect fill="#E9967A" height="29.3105" style="stroke:#181818;stroke-width:1.0;" width="10" x="355.5" y="121.7754"/><rect fill="#E9967A" height="29.3105" style="stroke:#181818;stroke-width:1.0;" width="10" x="355.5" y="281.0176"/><rect fill="#E9967A" height="29.3105" style="stroke:#181818;stroke-width:1.0;" width="10" x="355.5" y="440.2598"/><rect fill="#00FFFF" height="89.9658" style="stroke:#181818;stroke-width:1.0;" width="10" x="466.5" y="191.0518"/><rect fill="#00FFFF" height="89.9658" style="stroke:#181818;stroke-width:1.0;" width="10" x="466.5" y="310.3281"/><polygon fill="#181818" points="343.5,117.7754,353.5,121.7754,343.5,125.7754,347.5,121.7754" style="stroke:#181818;stroke-width:1.0;"/><line style="stroke:#181818;stroke-width:1.0;" x1="0" x2="349.5" y1="121.7754" y2="121.7754"/><text fill="#000000" font-family="sans-serif" font-size="13" lengthAdjust="spacing" textLength="29" x="7" y="117.0332">start</text><polygon fill="#181818" points="250,147.0859,240,151.0859,250,155.0859,246,151.0859" style="stroke:#181818;stroke-width:1.0;"/><line style="stroke:#181818;stroke-width:1.0;stroke-dasharray:2.0,2.0;" x1="244" x2="359.5" y1="151.0859" y2="151.0859"/><text fill="#000000" font-family="sans-serif" font-size="13" lengthAdjust="spacing" textLength="72" x="256" y="146.3438">vTaskDelay</text><polygon fill="#181818" points="454.5,187.0518,464.5,191.0518,454.5,195.0518,458.5,191.0518" style="stroke:#181818;stroke-width:1.0;"/><line style="stroke:#181818;stroke-width:1.0;stroke-dasharray:2.0,2.0;" x1="234" x2="460.5" y1="191.0518" y2="191.0518"/><text fill="#000000" font-family="sans-serif" font-size="13" lengthAdjust="spacing" textLength="72" x="241" y="186.3096">vTaskDelay</text><path d="M481,164.0859 L481,204.0859 L755,204.0859 L755,174.0859 L745,164.0859 L481,164.0859 " fill="#FEFFDD" style="stroke:#181818;stroke-width:0.5;"/><path d="M745,164.0859 L745,174.0859 L755,174.0859 L745,164.0859 " fill="#FEFFDD" style="stroke:#181818;stroke-width:0.5;"/><text fill="#000000" font-family="sans-serif" font-size="13" lengthAdjust="spacing" textLength="197" x="487" y="181.6543">Farbsensor wird nur ausgeführt</text><text fill="#000000" font-family="sans-serif" font-size="13" lengthAdjust="spacing" textLength="253" x="487" y="196.9648">wenn die anderen Task die CPU abgeben</text><polygon fill="#181818" points="376.5,277.0176,366.5,281.0176,376.5,285.0176,372.5,281.0176" style="stroke:#181818;stroke-width:1.0;"/><line style="stroke:#181818;stroke-width:1.0;stroke-dasharray:2.0,2.0;" x1="370.5" x2="470.5" y1="281.0176" y2="281.0176"/><text fill="#000000" font-family="sans-serif" font-size="13" lengthAdjust="spacing" textLength="72" x="382.5" y="276.2754">preemption</text><polygon fill="#181818" points="454.5,306.3281,464.5,310.3281,454.5,314.3281,458.5,310.3281" style="stroke:#181818;stroke-width:1.0;"/><line style="stroke:#181818;stroke-width:1.0;stroke-dasharray:2.0,2.0;" x1="360.5" x2="460.5" y1="310.3281" y2="310.3281"/><text fill="#000000" font-family="sans-serif" font-size="13" lengthAdjust="spacing" textLength="72" x="367.5" y="305.5859">vTaskDelay</text><polygon fill="#181818" points="250,396.2939,240,400.2939,250,404.2939,246,400.2939" style="stroke:#181818;stroke-width:1.0;"/><line style="stroke:#181818;stroke-width:1.0;" x1="244" x2="470.5" y1="400.2939" y2="400.2939"/><text fill="#000000" font-family="sans-serif" font-size="13" lengthAdjust="spacing" textLength="18" x="256" y="395.5518">rot</text><path d="M5,373.3281 L5,413.3281 L224,413.3281 L224,383.3281 L214,373.3281 L5,373.3281 " fill="#FEFFDD" style="stroke:#181818;stroke-width:0.5;"/><path d="M214,373.3281 L214,383.3281 L224,383.3281 L214,373.3281 " fill="#FEFFDD" style="stroke:#181818;stroke-width:0.5;"/><text fill="#000000" font-family="sans-serif" font-size="13" lengthAdjust="spacing" textLength="198" x="11" y="390.8965">Motor wartet bis eine Nachricht</text><text fill="#000000" font-family="sans-serif" font-size="13" lengthAdjust="spacing" textLength="160" x="11" y="406.207">von den Sensoren kommt</text><polygon fill="#181818" points="343.5,436.2598,353.5,440.2598,343.5,444.2598,347.5,440.2598" style="stroke:#181818;stroke-width:1.0;"/><line style="stroke:#181818;stroke-width:1.0;stroke-dasharray:2.0,2.0;" x1="234" x2="349.5" y1="440.2598" y2="440.2598"/><text fill="#000000" font-family="sans-serif" font-size="13" lengthAdjust="spacing" textLength="72" x="241" y="435.5176">preemption</text><polygon fill="#181818" points="250,465.5703,240,469.5703,250,473.5703,246,469.5703" style="stroke:#181818;stroke-width:1.0;"/><line style="stroke:#181818;stroke-width:1.0;" x1="244" x2="359.5" y1="469.5703" y2="469.5703"/><text fill="#000000" font-family="sans-serif" font-size="13" lengthAdjust="spacing" textLength="53" x="256" y="464.8281">obstacle</text><!--MD5=[dad4a51244831c960b055709bb33b2d6]
@startuml
title Linienfolger mit Kollisionkontrolle

participant "Motorcontroller" as motor << Prio 2 >>
participant "Distanzsensor" as distanz << Prio 3 >>
participant "Farbsensor" as farb << Prio 1 >>

[-> distanz ++ #DarkSalmon: start
 
distanz - -> motor - -++ #DodgerBlue: vTaskDelay 
motor - -> farb - -++ #aqua: vTaskDelay
note right
  Farbsensor wird nur ausgeführt
  wenn die anderen Task die CPU abgeben
end note


|||
|||
farb - -> distanz - -++ #DarkSalmon: preemption
distanz - -> farb - -++ #aqua: vTaskDelay

|||
|||

farb -> motor - -++ #DodgerBlue: rot
note left
  Motor wartet bis eine Nachricht
  von den Sensoren kommt
end note


"motor" - -> "distanz" - -++ #DarkSalmon: preemption
"distanz" -> motor - -++ #DodgerBlue: obstacle
@enduml

PlantUML version 1.2022.5(Sat Apr 30 12:55:52 CEST 2022)
(GPL source distribution)
Java Runtime: OpenJDK Runtime Environment
JVM: OpenJDK 64-Bit Server VM
Default Encoding: UTF-8
Language: de
Country: CH
--></g></svg>