<?xml version="1.0" encoding="UTF-8" standalone="no"?><svg xmlns="http://www.w3.org/2000/svg" xmlns:xlink="http://www.w3.org/1999/xlink" contentStyleType="text/css" height="496px" preserveAspectRatio="none" style="width:355px;height:496px;background:#FFFFFF;" version="1.1" viewBox="0 0 355 496" width="355px" zoomAndPan="magnify"><defs/><g><rect height="26.4883" style="stroke:#00000000;stroke-width:1.0;fill:none;" width="263" x="45" y="10"/><text fill="#000000" font-family="sans-serif" font-size="14" font-weight="bold" lengthAdjust="spacing" textLength="253" x="50" y="28.5352">Linienfolger mit Kollisionkontrolle</text><rect fill="#FFFFFF" height="29.3105" style="stroke:#181818;stroke-width:1.0;" width="10" x="61" y="151.0859"/><rect fill="#FFFFFF" height="29.3105" style="stroke:#181818;stroke-width:1.0;" width="10" x="61" y="368.3281"/><rect fill="#FFFFFF" height="9" style="stroke:#181818;stroke-width:1.0;" width="10" x="61" y="426.9492"/><rect fill="#FFFFFF" height="29.3105" style="stroke:#181818;stroke-width:1.0;" width="10" x="187.5" y="121.7754"/><rect fill="#FFFFFF" height="29.3105" style="stroke:#181818;stroke-width:1.0;" width="10" x="187.5" y="259.707"/><rect fill="#FFFFFF" height="29.3105" style="stroke:#181818;stroke-width:1.0;" width="10" x="187.5" y="397.6387"/><rect fill="#FFFFFF" height="79.3105" style="stroke:#181818;stroke-width:1.0;" width="10" x="298.5" y="180.3965"/><rect fill="#FFFFFF" height="79.3105" style="stroke:#181818;stroke-width:1.0;" width="10" x="298.5" y="289.0176"/><line style="stroke:#181818;stroke-width:0.5;stroke-dasharray:5.0,5.0;" x1="66" x2="66" y1="90.4648" y2="444.9492"/><line style="stroke:#181818;stroke-width:0.5;stroke-dasharray:5.0,5.0;" x1="192" x2="192" y1="90.4648" y2="444.9492"/><line style="stroke:#181818;stroke-width:0.5;stroke-dasharray:5.0,5.0;" x1="303" x2="303" y1="90.4648" y2="444.9492"/><rect fill="#E2E2F0" height="46.9766" rx="2.5" ry="2.5" style="stroke:#181818;stroke-width:0.5;" width="122" x="5" y="42.4883"/><text fill="#000000" font-family="sans-serif" font-size="14" font-style="italic" lengthAdjust="spacing" textLength="54" x="39" y="63.0234">«Prio 2»</text><text fill="#000000" font-family="sans-serif" font-size="14" lengthAdjust="spacing" textLength="108" x="12" y="79.5117">Motorcontroller</text><rect fill="#E2E2F0" height="46.9766" rx="2.5" ry="2.5" style="stroke:#181818;stroke-width:0.5;" width="122" x="5" y="443.9492"/><text fill="#000000" font-family="sans-serif" font-size="14" font-style="italic" lengthAdjust="spacing" textLength="54" x="39" y="464.4844">«Prio 2»</text><text fill="#000000" font-family="sans-serif" font-size="14" lengthAdjust="spacing" textLength="108" x="12" y="480.9727">Motorcontroller</text><rect fill="#E2E2F0" height="46.9766" rx="2.5" ry="2.5" style="stroke:#181818;stroke-width:0.5;" width="111" x="137" y="42.4883"/><text fill="#000000" font-family="sans-serif" font-size="14" font-style="italic" lengthAdjust="spacing" textLength="54" x="165.5" y="63.0234">«Prio 3»</text><text fill="#000000" font-family="sans-serif" font-size="14" lengthAdjust="spacing" textLength="97" x="144" y="79.5117">Distanzsensor</text><rect fill="#E2E2F0" height="46.9766" rx="2.5" ry="2.5" style="stroke:#181818;stroke-width:0.5;" width="111" x="137" y="443.9492"/><text fill="#000000" font-family="sans-serif" font-size="14" font-style="italic" lengthAdjust="spacing" textLength="54" x="165.5" y="464.4844">«Prio 3»</text><text fill="#000000" font-family="sans-serif" font-size="14" lengthAdjust="spacing" textLength="97" x="144" y="480.9727">Distanzsensor</text><rect fill="#E2E2F0" height="46.9766" rx="2.5" ry="2.5" style="stroke:#181818;stroke-width:0.5;" width="91" x="258" y="42.4883"/><text fill="#000000" font-family="sans-serif" font-size="14" font-style="italic" lengthAdjust="spacing" textLength="54" x="276.5" y="63.0234">«Prio 1»</text><text fill="#000000" font-family="sans-serif" font-size="14" lengthAdjust="spacing" textLength="77" x="265" y="79.5117">Farbsensor</text><rect fill="#E2E2F0" height="46.9766" rx="2.5" ry="2.5" style="stroke:#181818;stroke-width:0.5;" width="91" x="258" y="443.9492"/><text fill="#000000" font-family="sans-serif" font-size="14" font-style="italic" lengthAdjust="spacing" textLength="54" x="276.5" y="464.4844">«Prio 1»</text><text fill="#000000" font-family="sans-serif" font-size="14" lengthAdjust="spacing" textLength="77" x="265" y="480.9727">Farbsensor</text><rect fill="#FFFFFF" height="29.3105" style="stroke:#181818;stroke-width:1.0;" width="10" x="61" y="151.0859"/><rect fill="#FFFFFF" height="29.3105" style="stroke:#181818;stroke-width:1.0;" width="10" x="61" y="368.3281"/><rect fill="#FFFFFF" height="9" style="stroke:#181818;stroke-width:1.0;" width="10" x="61" y="426.9492"/><rect fill="#FFFFFF" height="29.3105" style="stroke:#181818;stroke-width:1.0;" width="10" x="187.5" y="121.7754"/><rect fill="#FFFFFF" height="29.3105" style="stroke:#181818;stroke-width:1.0;" width="10" x="187.5" y="259.707"/><rect fill="#FFFFFF" height="29.3105" style="stroke:#181818;stroke-width:1.0;" width="10" x="187.5" y="397.6387"/><rect fill="#FFFFFF" height="79.3105" style="stroke:#181818;stroke-width:1.0;" width="10" x="298.5" y="180.3965"/><rect fill="#FFFFFF" height="79.3105" style="stroke:#181818;stroke-width:1.0;" width="10" x="298.5" y="289.0176"/><polygon fill="#181818" points="175.5,117.7754,185.5,121.7754,175.5,125.7754,179.5,121.7754" style="stroke:#181818;stroke-width:1.0;"/><line style="stroke:#181818;stroke-width:1.0;" x1="0" x2="181.5" y1="121.7754" y2="121.7754"/><text fill="#000000" font-family="sans-serif" font-size="13" lengthAdjust="spacing" textLength="29" x="7" y="117.0332">start</text><polygon fill="#181818" points="82,147.0859,72,151.0859,82,155.0859,78,151.0859" style="stroke:#181818;stroke-width:1.0;"/><line style="stroke:#181818;stroke-width:1.0;stroke-dasharray:2.0,2.0;" x1="76" x2="191.5" y1="151.0859" y2="151.0859"/><text fill="#000000" font-family="sans-serif" font-size="13" lengthAdjust="spacing" textLength="30" x="88" y="146.3438">yield</text><polygon fill="#181818" points="286.5,176.3965,296.5,180.3965,286.5,184.3965,290.5,180.3965" style="stroke:#181818;stroke-width:1.0;"/><line style="stroke:#181818;stroke-width:1.0;stroke-dasharray:2.0,2.0;" x1="66" x2="292.5" y1="180.3965" y2="180.3965"/><text fill="#000000" font-family="sans-serif" font-size="13" lengthAdjust="spacing" textLength="30" x="73" y="175.6543">yield</text><polygon fill="#181818" points="208.5,255.707,198.5,259.707,208.5,263.707,204.5,259.707" style="stroke:#181818;stroke-width:1.0;"/><line style="stroke:#181818;stroke-width:1.0;stroke-dasharray:2.0,2.0;" x1="202.5" x2="302.5" y1="259.707" y2="259.707"/><text fill="#000000" font-family="sans-serif" font-size="13" lengthAdjust="spacing" textLength="72" x="214.5" y="254.9648">preemption</text><polygon fill="#181818" points="286.5,285.0176,296.5,289.0176,286.5,293.0176,290.5,289.0176" style="stroke:#181818;stroke-width:1.0;"/><line style="stroke:#181818;stroke-width:1.0;stroke-dasharray:2.0,2.0;" x1="192.5" x2="292.5" y1="289.0176" y2="289.0176"/><text fill="#000000" font-family="sans-serif" font-size="13" lengthAdjust="spacing" textLength="30" x="199.5" y="284.2754">yield</text><polygon fill="#181818" points="82,364.3281,72,368.3281,82,372.3281,78,368.3281" style="stroke:#181818;stroke-width:1.0;"/><line style="stroke:#181818;stroke-width:1.0;" x1="76" x2="302.5" y1="368.3281" y2="368.3281"/><text fill="#000000" font-family="sans-serif" font-size="13" lengthAdjust="spacing" textLength="18" x="88" y="363.5859">rot</text><polygon fill="#181818" points="175.5,393.6387,185.5,397.6387,175.5,401.6387,179.5,397.6387" style="stroke:#181818;stroke-width:1.0;"/><line style="stroke:#181818;stroke-width:1.0;stroke-dasharray:2.0,2.0;" x1="66" x2="181.5" y1="397.6387" y2="397.6387"/><text fill="#000000" font-family="sans-serif" font-size="13" lengthAdjust="spacing" textLength="72" x="73" y="392.8965">preemption</text><polygon fill="#181818" points="82,422.9492,72,426.9492,82,430.9492,78,426.9492" style="stroke:#181818;stroke-width:1.0;"/><line style="stroke:#181818;stroke-width:1.0;" x1="76" x2="191.5" y1="426.9492" y2="426.9492"/><text fill="#000000" font-family="sans-serif" font-size="13" lengthAdjust="spacing" textLength="53" x="88" y="422.207">obstacle</text><!--MD5=[ff7dd228b9949e3c04a123d8c1fb7081]
@startuml
title Linienfolger mit Kollisionkontrolle

participant "Motorcontroller" as motor << Prio 2 >>
participant "Distanzsensor" as distanz << Prio 3 >>
participant "Farbsensor" as farb << Prio 1 >>

[-> distanz ++: start
 
distanz - -> motor - -++: yield
motor - -> farb - -++: yield
|||
|||
farb - -> distanz - -++: preemption
distanz - -> farb - -++: yield

|||
|||
farb -> motor - -++: rot

"motor" - -> "distanz" - -++: preemption
"distanz" -> motor - -++: obstacle
@enduml

PlantUML version 1.2022.5(Sat Apr 30 12:55:52 CEST 2022)
(GPL source distribution)
Java Runtime: OpenJDK Runtime Environment
JVM: OpenJDK 64-Bit Server VM
Default Encoding: UTF-8
Language: de
Country: CH
--></g></svg>