<?xml version="1.0" encoding="UTF-8" standalone="no"?><svg xmlns="http://www.w3.org/2000/svg" xmlns:xlink="http://www.w3.org/1999/xlink" contentStyleType="text/css" height="906px" preserveAspectRatio="none" style="width:393px;height:906px;background:#FFFFFF;" version="1.1" viewBox="0 0 393 906" width="393px" zoomAndPan="magnify"><defs/><g><ellipse cx="184" cy="20" fill="#222222" rx="10" ry="10" style="stroke:#222222;stroke-width:1.0;"/><rect fill="#98FB98" height="34.1328" rx="12.5" ry="12.5" style="stroke:#181818;stroke-width:0.5;" width="206" x="81" y="50"/><text fill="#000000" font-family="sans-serif" font-size="12" lengthAdjust="spacing" textLength="186" x="91" y="71.6016">Letzte nachrichtenposition laden</text><rect fill="#98FB98" height="34.1328" rx="12.5" ry="12.5" style="stroke:#181818;stroke-width:0.5;" width="171" x="98.5" y="104.1328"/><text fill="#000000" font-family="sans-serif" font-size="12" lengthAdjust="spacing" textLength="151" x="108.5" y="125.7344">Maximaler Füllstand laden</text><rect fill="#FF0000" height="34.1328" rx="12.5" ry="12.5" style="stroke:#181818;stroke-width:0.5;" width="105" x="131.5" y="158.2656"/><text fill="#000000" font-family="sans-serif" font-size="12" lengthAdjust="spacing" textLength="81" x="145.5" y="179.8672">context switch</text><rect fill="#00FFFF" height="34.1328" rx="12.5" ry="12.5" style="stroke:#181818;stroke-width:0.5;" width="206" x="81" y="212.3984"/><text fill="#000000" font-family="sans-serif" font-size="12" lengthAdjust="spacing" textLength="186" x="91" y="234">Letzte nachrichtenposition laden</text><rect fill="#00FFFF" height="34.1328" rx="12.5" ry="12.5" style="stroke:#181818;stroke-width:0.5;" width="171" x="98.5" y="266.5313"/><text fill="#000000" font-family="sans-serif" font-size="12" lengthAdjust="spacing" textLength="151" x="108.5" y="288.1328">Maximaler Füllstand laden</text><rect fill="#00FFFF" height="34.1328" rx="12.5" ry="12.5" style="stroke:#181818;stroke-width:0.5;" width="107" x="130.5" y="364.6641"/><text fill="#000000" font-family="sans-serif" font-size="12" lengthAdjust="spacing" textLength="87" x="140.5" y="386.2656">Inkrementieren</text><rect fill="#00FFFF" height="34.1328" rx="12.5" ry="12.5" style="stroke:#181818;stroke-width:0.5;" width="217" x="75.5" y="418.7969"/><text fill="#000000" font-family="sans-serif" font-size="12" lengthAdjust="spacing" textLength="197" x="85.5" y="440.3984">Nachricht aus dem Speicher laden</text><rect fill="#00FFFF" height="34.1328" rx="12.5" ry="12.5" style="stroke:#181818;stroke-width:0.5;" width="346" x="11" y="472.9297"/><text fill="#000000" font-family="sans-serif" font-size="12" lengthAdjust="spacing" textLength="326" x="21" y="494.5313">Nachricht in den Speicher der Message Queue speichern</text><polygon fill="#F1F1F1" points="52.5,320.6641,315.5,320.6641,327.5,332.6641,315.5,344.6641,52.5,344.6641,40.5,332.6641,52.5,320.6641" style="stroke:#181818;stroke-width:0.5;"/><text fill="#000000" font-family="sans-serif" font-size="11" lengthAdjust="spacing" textLength="263" x="52.5" y="336.8213">maximaler Füllstand &gt; letzte nachrichtenposition</text><polygon fill="#F1F1F1" points="184,527.0625,196,539.0625,184,551.0625,172,539.0625,184,527.0625" style="stroke:#181818;stroke-width:0.5;"/><rect fill="#FF0000" height="34.1328" rx="12.5" ry="12.5" style="stroke:#181818;stroke-width:0.5;" width="105" x="131.5" y="571.0625"/><text fill="#000000" font-family="sans-serif" font-size="12" lengthAdjust="spacing" textLength="81" x="145.5" y="592.6641">context switch</text><rect fill="#98FB98" height="34.1328" rx="12.5" ry="12.5" style="stroke:#181818;stroke-width:0.5;" width="107" x="130.5" y="669.1953"/><text fill="#000000" font-family="sans-serif" font-size="12" lengthAdjust="spacing" textLength="87" x="140.5" y="690.7969">Inkrementieren</text><rect fill="#98FB98" height="34.1328" rx="12.5" ry="12.5" style="stroke:#181818;stroke-width:0.5;" width="217" x="75.5" y="723.3281"/><text fill="#000000" font-family="sans-serif" font-size="12" lengthAdjust="spacing" textLength="197" x="85.5" y="744.9297">Nachricht aus dem Speicher laden</text><rect fill="#98FB98" height="34.1328" rx="12.5" ry="12.5" style="stroke:#181818;stroke-width:0.5;" width="346" x="11" y="777.4609"/><text fill="#000000" font-family="sans-serif" font-size="12" lengthAdjust="spacing" textLength="326" x="21" y="799.0625">Nachricht in den Speicher der Message Queue speichern</text><polygon fill="#F1F1F1" points="52.5,625.1953,315.5,625.1953,327.5,637.1953,315.5,649.1953,52.5,649.1953,40.5,637.1953,52.5,625.1953" style="stroke:#181818;stroke-width:0.5;"/><text fill="#000000" font-family="sans-serif" font-size="11" lengthAdjust="spacing" textLength="263" x="52.5" y="641.3525">maximaler Füllstand &gt; letzte nachrichtenposition</text><polygon fill="#F1F1F1" points="184,831.5938,196,843.5938,184,855.5938,172,843.5938,184,831.5938" style="stroke:#181818;stroke-width:0.5;"/><ellipse cx="184" cy="885.5938" rx="10" ry="10" style="stroke:#222222;stroke-width:1.5;fill:none;"/><line style="stroke:#222222;stroke-width:2.5;fill:none;" x1="177.8128" x2="190.1872" y1="879.4066" y2="891.7809"/><line style="stroke:#222222;stroke-width:2.5;fill:none;" x1="190.1872" x2="177.8128" y1="879.4066" y2="891.7809"/><line style="stroke:#181818;stroke-width:1.0;fill:none;" x1="184" x2="184" y1="30" y2="50"/><polygon fill="#181818" points="180,40,184,50,188,40,184,44" style="stroke:#181818;stroke-width:1.0;"/><line style="stroke:#181818;stroke-width:1.0;" x1="184" x2="184" y1="84.1328" y2="104.1328"/><polygon fill="#181818" points="180,94.1328,184,104.1328,188,94.1328,184,98.1328" style="stroke:#181818;stroke-width:1.0;"/><line style="stroke:#181818;stroke-width:1.0;" x1="184" x2="184" y1="138.2656" y2="158.2656"/><polygon fill="#181818" points="180,148.2656,184,158.2656,188,148.2656,184,152.2656" style="stroke:#181818;stroke-width:1.0;"/><line style="stroke:#181818;stroke-width:1.0;" x1="184" x2="184" y1="192.3984" y2="212.3984"/><polygon fill="#181818" points="180,202.3984,184,212.3984,188,202.3984,184,206.3984" style="stroke:#181818;stroke-width:1.0;"/><line style="stroke:#181818;stroke-width:1.0;" x1="184" x2="184" y1="246.5313" y2="266.5313"/><polygon fill="#181818" points="180,256.5313,184,266.5313,188,256.5313,184,260.5313" style="stroke:#181818;stroke-width:1.0;"/><line style="stroke:#181818;stroke-width:1.0;" x1="184" x2="184" y1="398.7969" y2="418.7969"/><polygon fill="#181818" points="180,408.7969,184,418.7969,188,408.7969,184,412.7969" style="stroke:#181818;stroke-width:1.0;"/><line style="stroke:#181818;stroke-width:1.0;" x1="184" x2="184" y1="452.9297" y2="472.9297"/><polygon fill="#181818" points="180,462.9297,184,472.9297,188,462.9297,184,466.9297" style="stroke:#181818;stroke-width:1.0;"/><line style="stroke:#181818;stroke-width:1.0;" x1="184" x2="184" y1="344.6641" y2="364.6641"/><polygon fill="#181818" points="180,354.6641,184,364.6641,188,354.6641,184,358.6641" style="stroke:#181818;stroke-width:1.0;"/><line style="stroke:#181818;stroke-width:1.0;" x1="327.5" x2="367" y1="332.6641" y2="332.6641"/><polygon fill="#181818" points="363,425.8633,367,435.8633,371,425.8633,367,429.8633" style="stroke:#181818;stroke-width:1.0;"/><line style="stroke:#181818;stroke-width:1.0;" x1="367" x2="367" y1="332.6641" y2="539.0625"/><line style="stroke:#181818;stroke-width:1.0;" x1="367" x2="196" y1="539.0625" y2="539.0625"/><polygon fill="#181818" points="206,535.0625,196,539.0625,206,543.0625,202,539.0625" style="stroke:#181818;stroke-width:1.0;"/><line style="stroke:#181818;stroke-width:1.0;" x1="184" x2="184" y1="507.0625" y2="527.0625"/><polygon fill="#181818" points="180,517.0625,184,527.0625,188,517.0625,184,521.0625" style="stroke:#181818;stroke-width:1.0;"/><line style="stroke:#181818;stroke-width:1.0;" x1="184" x2="184" y1="300.6641" y2="320.6641"/><polygon fill="#181818" points="180,310.6641,184,320.6641,188,310.6641,184,314.6641" style="stroke:#181818;stroke-width:1.0;"/><line style="stroke:#181818;stroke-width:1.0;" x1="184" x2="184" y1="551.0625" y2="571.0625"/><polygon fill="#181818" points="180,561.0625,184,571.0625,188,561.0625,184,565.0625" style="stroke:#181818;stroke-width:1.0;"/><line style="stroke:#181818;stroke-width:1.0;" x1="184" x2="184" y1="703.3281" y2="723.3281"/><polygon fill="#181818" points="180,713.3281,184,723.3281,188,713.3281,184,717.3281" style="stroke:#181818;stroke-width:1.0;"/><line style="stroke:#181818;stroke-width:1.0;" x1="184" x2="184" y1="757.4609" y2="777.4609"/><polygon fill="#181818" points="180,767.4609,184,777.4609,188,767.4609,184,771.4609" style="stroke:#181818;stroke-width:1.0;"/><line style="stroke:#181818;stroke-width:1.0;" x1="184" x2="184" y1="649.1953" y2="669.1953"/><polygon fill="#181818" points="180,659.1953,184,669.1953,188,659.1953,184,663.1953" style="stroke:#181818;stroke-width:1.0;"/><line style="stroke:#181818;stroke-width:1.0;" x1="327.5" x2="367" y1="637.1953" y2="637.1953"/><polygon fill="#181818" points="363,730.3945,367,740.3945,371,730.3945,367,734.3945" style="stroke:#181818;stroke-width:1.0;"/><line style="stroke:#181818;stroke-width:1.0;" x1="367" x2="367" y1="637.1953" y2="843.5938"/><line style="stroke:#181818;stroke-width:1.0;" x1="367" x2="196" y1="843.5938" y2="843.5938"/><polygon fill="#181818" points="206,839.5938,196,843.5938,206,847.5938,202,843.5938" style="stroke:#181818;stroke-width:1.0;"/><line style="stroke:#181818;stroke-width:1.0;" x1="184" x2="184" y1="811.5938" y2="831.5938"/><polygon fill="#181818" points="180,821.5938,184,831.5938,188,821.5938,184,825.5938" style="stroke:#181818;stroke-width:1.0;"/><line style="stroke:#181818;stroke-width:1.0;" x1="184" x2="184" y1="605.1953" y2="625.1953"/><polygon fill="#181818" points="180,615.1953,184,625.1953,188,615.1953,184,619.1953" style="stroke:#181818;stroke-width:1.0;"/><line style="stroke:#181818;stroke-width:1.0;" x1="184" x2="184" y1="855.5938" y2="875.5938"/><polygon fill="#181818" points="180,865.5938,184,875.5938,188,865.5938,184,869.5938" style="stroke:#181818;stroke-width:1.0;"/><!--MD5=[e0c41e5b482723a6e5f22be8c0564ec0]
@startuml
start
#palegreen:Letzte nachrichtenposition laden;
#palegreen:Maximaler Füllstand laden;

#red: context switch;

#aqua:Letzte nachrichtenposition laden;
#aqua:Maximaler Füllstand laden;
if(maximaler Füllstand > letzte nachrichtenposition)
  #aqua:Inkrementieren;
  #aqua:Nachricht aus dem Speicher laden;
  #aqua:Nachricht in den Speicher der Message Queue speichern;
endif

#red: context switch;

if(maximaler Füllstand > letzte nachrichtenposition)
  #palegreen:Inkrementieren;
  #palegreen:Nachricht aus dem Speicher laden;
  #palegreen:Nachricht in den Speicher der Message Queue speichern;
endif
end
@enduml

PlantUML version 1.2022.4(Sat Apr 09 15:29:17 CEST 2022)
(GPL source distribution)
Java Runtime: OpenJDK Runtime Environment
JVM: OpenJDK 64-Bit Server VM
Default Encoding: UTF-8
Language: de
Country: CH
--></g></svg>